# xmcd CD database file
#
# Track frame offsets:
#	183
#	19455
#	39198
#	57795
#	85488
#	101950
#	117360
#	135295
#	150483
#	166458
#	186808
#
# Disc length: 2688 seconds
#
# Revision: 0
# Processed by: cddbd v1.5.2PL0 Copyright (c) Steve Scherf et al.
# Submitted via: CDex 1.70beta2
#
DISCID=8a0a7e0b
DTITLE=Firehouse five plus two - Dixieland favorites
DYEAR=1900
DGENRE=Jazz
TTITLE0=Fidgety feet
TTITLE1=Storyville blues
TTITLE2=Muskrat ramble
TTITLE3=Canal Street blues
TTITLE4=Jazz me blues
TTITLE5=Working man blues
TTITLE6=Doctor jazz
TTITLE7=Royal Garden blues
TTITLE8=Come back sweet papa
TTITLE9=Sister Kate
TTITLE10=That's a plenty
EXTD=
EXTT0=
EXTT1=
EXTT2=
EXTT3=
EXTT4=
EXTT5=
EXTT6=
EXTT7=
EXTT8=
EXTT9=
EXTT10=
PLAYORDER=
